<?xml version="1.0" encoding="utf-8"?>
<!-- Generator: Adobe Illustrator 26.3.1, SVG Export Plug-In . SVG Version: 6.00 Build 0)  -->
<svg version="1.1" id="Layer_1" xmlns="http://www.w3.org/2000/svg" xmlns:xlink="http://www.w3.org/1999/xlink" x="0px" y="0px"
	 viewBox="0 0 226 80" style="enable-background:new 0 0 226 80;" xml:space="preserve">
<style type="text/css">
	.st0{fill:#FFFFFF;}
	.st1{fill:url(#SVGID_1_);}
</style>
<path class="st0" d="M98.4,48.5l-9.5,0c-1.7,0-2.3-0.9-2.3-2.3l0-3c0-1.5,0.6-2.3,2.3-2.4l8.5,0c0.2,0,0.4-0.2,0.4-0.4l0-2.5
	c0-0.2-0.2-0.4-0.4-0.4l-8.5,0c-1.6,0-2.2-0.9-2.2-2.3l0-3c0-1.5,0.6-2.3,2.3-2.4l9.3,0c0.2,0,0.4-0.2,0.4-0.4l0-2.5
	c0-0.2-0.2-0.4-0.4-0.4l-15,0c-0.2,0-0.4,0.2-0.4,0.4l0,24.4c0,0.2,0.2,0.4,0.4,0.4l15.1,0c0.2,0,0.4-0.2,0.4-0.4l0-2.5
	C98.8,48.6,98.7,48.5,98.4,48.5L98.4,48.5z M119.1,39.5c-0.1-0.1-0.2-0.1-0.3-0.2v0c-0.7-0.4-0.6-1.5,0-1.8c0.6-0.4,1.2-1,1.5-1.7
	c0.4-0.7,0.6-1.6,0.6-2.6c0-1.2-0.3-2.4-0.9-3.4c-0.6-1-1.5-1.8-2.6-2.4c-1.2-0.6-2.7-0.9-4.4-0.9l-8.8,0c-0.2,0-0.4,0.2-0.4,0.4
	l0,24.4c0,0.2,0.2,0.4,0.4,0.4l9.3,0c2,0,3.6-0.3,4.8-0.9c1.3-0.6,2.2-1.4,2.8-2.4c0.6-1,0.9-2.2,0.9-3.5c0-1.3-0.3-2.4-0.8-3.3
	C120.6,40.7,119.9,40,119.1,39.5z M107.5,32c0-1.4,0.6-2.2,2.2-2.3l2.9,0c1.5,0,2.6,0.3,3.4,1.1c0.7,0.7,1.1,1.6,1.1,2.6
	c0,0.8-0.2,1.5-0.6,2.1c-0.4,0.6-0.9,1.1-1.6,1.4c-0.7,0.3-1.5,0.5-2.3,0.5l-2.8,0c-1.6,0-2.2-0.8-2.3-2.3L107.5,32L107.5,32z
	 M117,47.4c-0.8,0.7-2.1,1.1-3.9,1.1l-3.2,0c-1.6,0-2.2-0.8-2.3-2.3l0-3.6c0-1.4,0.6-2.2,2.2-2.3l3.4,0c1,0,1.9,0.2,2.6,0.6
	c0.7,0.4,1.3,0.9,1.7,1.6c0.4,0.7,0.6,1.4,0.6,2.2C118.1,45.8,117.8,46.7,117,47.4L117,47.4z M140.1,42.6c-0.3-0.5-0.1-1.2,0.5-1.6
	h0c1.1-0.6,1.9-1.5,2.5-2.5c0.6-1.2,1-2.5,1-4.1c0-1.5-0.3-2.9-1-4.1s-1.6-2.1-2.9-2.8c-1.3-0.7-2.9-1-4.9-1l-8.6,0
	c-0.2,0-0.4,0.2-0.4,0.4l0,24.4c0,0.2,0.2,0.4,0.4,0.4l3,0c0.2,0,0.4-0.2,0.4-0.4l0-6.8c0-1.5,0.6-2.3,2.3-2.3l2.1,0
	c0.7,0,1.2,0.3,1.5,0.9l4.5,8.4c0.1,0.1,0.2,0.2,0.3,0.2l3.4,0c0.3,0,0.5-0.3,0.3-0.6L140.1,42.6L140.1,42.6z M138,38.3
	c-0.8,0.4-1.8,0.5-3,0.5l-2.5,0c-1.7,0-2.3-0.8-2.3-2.3l0-4.5c0-1.5,0.6-2.3,2.3-2.4l2.5,0c1.3,0,2.3,0.2,3,0.6
	c0.8,0.4,1.3,0.9,1.7,1.6s0.5,1.5,0.6,2.5c0,0.9-0.2,1.8-0.5,2.4C139.4,37.5,138.8,38,138,38.3z M160.4,26.7c0-0.1-0.1-0.1-0.1-0.2
	c-0.1,0-0.1-0.1-0.2-0.1l-3.8,0c-0.2,0-0.3,0.1-0.4,0.3L147,51.1c-0.1,0.3,0.1,0.5,0.4,0.5l3.2,0c0.2,0,0.3-0.1,0.4-0.3l1.6-4.7
	c0.2-0.6,0.9-1.7,2.2-1.7l6.6,0c1.3,0,2,1,2.2,1.7l1.6,4.7c0,0.1,0.1,0.1,0.1,0.2c0.1,0,0.1,0.1,0.2,0.1l3.2,0
	c0.3,0,0.5-0.3,0.4-0.5L160.4,26.7L160.4,26.7z M160.1,41.7l-3.9,0c-1.5,0-1.4-1.2-1.2-1.8l2.2-6.4c0.2-0.9,1.7-0.9,2,0l2.2,6.5
	C161.5,40.6,161.5,41.7,160.1,41.7L160.1,41.7z M176.3,26.4l-3,0c-0.2,0-0.4,0.2-0.4,0.4l0,24.4c0,0.2,0.2,0.4,0.4,0.4l3,0
	c0.2,0,0.4-0.2,0.4-0.4l0-24.4C176.7,26.6,176.6,26.4,176.3,26.4z M202.2,26.3l-3,0c-0.2,0-0.4,0.2-0.4,0.4l0,15
	c0,1.2-1.4,1.4-2,0.5l-11-15.7c0-0.1-0.1-0.1-0.1-0.1c-0.1,0-0.1,0-0.2,0l-2.9,0c-0.2,0-0.4,0.2-0.4,0.4l0,24.4
	c0,0.2,0.2,0.4,0.4,0.4l3,0c0.2,0,0.4-0.2,0.4-0.4l0-15c0-1.3,1.4-1.4,2-0.5L199,51.4c0.1,0.1,0.2,0.2,0.3,0.2l2.9,0
	c0.2,0,0.4-0.2,0.4-0.4l0-24.4c0-0.1,0-0.2-0.1-0.3C202.4,26.4,202.3,26.3,202.2,26.3L202.2,26.3z M225.2,41.6c-0.4-0.8-1-1.5-1.8-2
	c-0.7-0.5-1.5-1-2.4-1.3c-0.8-0.3-1.7-0.6-2.5-0.8l-2.5-0.6c-0.5-0.1-1-0.3-1.5-0.5c-0.5-0.2-1-0.4-1.5-0.7
	c-0.5-0.3-0.8-0.7-1.1-1.1c-0.3-0.4-0.4-1-0.4-1.5c0-0.7,0.2-1.4,0.6-1.9c0.4-0.6,1-1,1.7-1.3c0.8-0.3,1.6-0.5,2.7-0.5
	c1.4,0,2.6,0.3,3.6,1c0.9,0.6,1.4,1.4,1.6,2.4c0,0.1,0.1,0.2,0.1,0.2c0.1,0.1,0.2,0.1,0.3,0.1l2.9,0c0.2,0,0.4-0.2,0.4-0.4
	c-0.1-1.2-0.5-2.2-1.2-3.2c-0.8-1-1.8-1.9-3.1-2.5c-1.3-0.6-2.8-0.9-4.5-0.9c-1.7,0-3.2,0.3-4.5,0.9c-1.3,0.6-2.4,1.4-3.2,2.5
	c-0.8,1.1-1.2,2.4-1.2,3.8c0,1.8,0.6,3.2,1.8,4.2c1.2,1.1,2.8,1.9,4.8,2.4l3,0.8c0.9,0.2,1.7,0.5,2.4,0.8c0.7,0.3,1.3,0.7,1.7,1.2
	c0.4,0.5,0.6,1.1,0.6,1.8c0,0.8-0.2,1.5-0.7,2.1c-0.5,0.6-1.1,1.1-2,1.4c-0.8,0.3-1.8,0.5-2.9,0.5c-1,0-1.9-0.1-2.7-0.4
	c-0.8-0.3-1.5-0.7-2-1.3c-0.5-0.5-0.7-1.2-0.9-1.9c0-0.1-0.1-0.2-0.1-0.2c-0.1-0.1-0.2-0.1-0.3-0.1l-3,0c-0.2,0-0.4,0.2-0.4,0.4
	c0.1,1.3,0.6,2.5,1.3,3.5c0.8,1.1,1.9,1.9,3.2,2.5c1.4,0.6,3,0.9,4.9,0.9c2,0,3.6-0.3,5-1c1.4-0.6,2.4-1.5,3.2-2.6s1.1-2.4,1.1-3.8
	C225.9,43.4,225.7,42.4,225.2,41.6L225.2,41.6z"/>
<linearGradient id="SVGID_1_" gradientUnits="userSpaceOnUse" x1="4840.8369" y1="-3107.3452" x2="5145.7368" y2="-2802.4451" gradientTransform="matrix(0.1506 0 0 -0.1506 -718.6209 -404.7961)">
	<stop  offset="0" style="stop-color:#00A595"/>
	<stop  offset="0.481" style="stop-color:#00C959"/>
	<stop  offset="1" style="stop-color:#9CE142"/>
</linearGradient>
<path class="st1" d="M13.8,17.7c6.1-4,11.6-4.9,16.6-3.8v0c2.1,0.1,1.4-1.3,0.5-1.9c-1.3-0.8-2.5-1.4-3.8-2
	c-0.9-0.4-1.9-0.8-2.8-1.1l-5.4,1.5c-1.6,0.4-3.1,1.3-4.2,2.5L6,21.5c-1.2,1.2-2,2.6-2.4,4.3L3.2,27C6.6,23.5,10,20.2,13.8,17.7z
	 M51.7,39.2C51.7,39.2,51.7,39.2,51.7,39.2c1.3,0.7,2.6,0,0.9-1.3C41.9,29.7,30.7,22.8,18,27.3c-6.6,2.3-12.3,6.8-17.8,11.4
	C0,40,0,41.3,0.4,42.5l1.1,4c0,0,0,0,0,0C8.2,41.3,15.1,36,23.6,33.9C33,31.6,42.6,34.6,51.7,39.2L51.7,39.2z M62.3,34.5
	c1.3,0.8,2.5,1.5,3.7,2.1l-3-11c-0.4-1.6-1.3-3.1-2.5-4.2l-8.7-8.7c-1.2-1.2-2.6-2-4.3-2.4L35.7,7.1c-1.6-0.4-3.3-0.4-4.9,0L28,7.8
	c6.9,3.7,12.2,7.2,20.3,15.2C56.3,30.9,57.6,31.6,62.3,34.5z M25.7,61c-5.5-0.1-10.2,1-14.5,2.7l3.6,3.6c1.2,1.2,2.6,2,4.3,2.4
	l11.9,3.2c1.6,0.4,3.3,0.4,4.9,0l11.9-3.2c1.6-0.4,3.1-1.3,4.2-2.5l0.2-0.2C43.4,63.7,34.5,61.2,25.7,61L25.7,61z M66.5,39.3
	c-8.5-4.3-14-9.6-15.4-11c-6.5-6.5-21.5-21.3-36.8-10c-4,2.9-7.9,6.5-11.6,10.3L1.1,35c5-4,10.2-7.7,16.2-9.9
	c15.8-5.6,28.8,4.7,41.5,14.6c2.3,1.8,4.6,3.6,6.8,5.2l0.7-2.6c0.2-0.8,0.3-1.6,0.3-2.5C66.6,39.7,66.6,39.5,66.5,39.3L66.5,39.3z
	 M23.8,34.7C15.4,36.7,8.6,42,2,47.2c-0.1,0.1-0.2,0.2-0.3,0.2l1.9,7C3.8,55,4,55.6,4.3,56.2c0.9-0.6,1.7-1.2,2.6-1.9
	c7.2-5.2,14.6-10.7,24.5-11.8c10.8-1.3,22.1,2.4,33,7.1l0.5-1.8C52,39.8,37.7,31.3,23.8,34.7z M31.6,44.7
	c-5.9,0.7-10.8,2.9-15.4,5.8c-1.7,1.1-1,2.2,0.6,1.7c0,0,0,0,0,0c3.2-1,6.7-1.6,10.7-1.6c11.4,0,22.7,3.3,33.7,7.3
	c0.9-1,1.5-2.3,1.9-3.6l0.7-2.5C53.1,47.1,41.9,43.5,31.6,44.7L31.6,44.7z M6,58.6C6,58.6,6,58.6,6,58.6L9.4,62
	c4.8-2.1,10-3.4,16.3-3.3c9.5,0.2,19,2.9,28.2,6.5l6.7-6.7c-10.9-3.9-22-7-33.1-7.1C18.4,51.4,12.2,54.6,6,58.6L6,58.6z"/>
</svg>
