<svg width="226" height="80" viewBox="0 0 1501 442" fill="none" xmlns="http://www.w3.org/2000/svg"><path d="M653.81 277.19L590.91 277.32C579.76 277.24 575.82 271.61 575.8 261.78L575.76 241.73C575.74 231.85 579.68 226.2 590.96 226.12L647.25 226.01C648.7 226.01 649.87 224.83 649.87 223.38L649.84 206.98C649.84 205.53 648.66 204.36 647.21 204.36L590.49 204.47C579.55 204.3 575.67 198.68 575.65 188.94L575.61 169.13C575.59 159.21 579.57 153.54 590.97 153.52L652.58 153.4C654.03 153.4 655.2 152.22 655.2 150.77L655.17 134.29C655.17 132.84 653.99 131.67 652.54 131.67L552.94 131.87C551.49 131.87 550.32 133.05 550.32 134.5L550.64 296.49C550.64 297.94 551.82 299.11 553.27 299.11L653.85 298.91C655.3 298.91 656.47 297.73 656.47 296.28L656.44 279.8C656.44 278.36 655.26 277.19 653.81 277.19V277.19ZM791.26 217.59C790.53 217.14 789.79 216.72 789.05 216.32V216.31C784.65 213.56 785.32 206.6 789.03 204.36C793.3 201.49 796.7 197.68 799.26 192.91C801.81 188.14 803.08 182.27 803.06 175.31C803.04 167.04 801.09 159.59 797.22 152.99C793.34 146.38 787.51 141.14 779.71 137.27C771.92 133.39 762.09 131.47 750.22 131.49L691.6 131.61C690.15 131.61 688.98 132.79 688.98 134.24L689.3 296.23C689.3 297.68 690.48 298.85 691.93 298.85L753.41 298.73C766.37 298.7 777.01 296.71 785.33 292.75C793.65 288.79 799.8 283.41 803.79 276.63C807.78 269.84 809.76 262.18 809.75 253.63C809.73 244.98 807.98 237.63 804.48 231.59C800.98 225.53 796.57 220.88 791.26 217.59ZM714.28 168.02C714.42 158.58 718.36 153.16 729.2 153L748.71 152.96C758.73 152.94 766.16 155.27 771.02 159.94C775.87 164.61 778.31 170.41 778.32 177.32C778.33 182.71 776.99 187.38 774.31 191.33C771.62 195.28 768.01 198.35 763.47 200.54C758.93 202.73 753.83 203.83 748.17 203.84L729.45 203.88C718.5 203.81 714.51 198.39 714.33 188.91L714.28 168.02V168.02ZM776.87 270C771.65 274.69 763 277.05 750.92 277.07L729.56 277.11C718.63 277.03 714.64 271.61 714.47 262.14L714.42 238.56C714.56 229.16 718.47 223.74 729.23 223.54L751.71 223.5C758.46 223.49 764.3 224.78 769.23 227.38C774.16 229.98 777.96 233.49 780.64 237.89C783.32 242.29 784.66 247.14 784.67 252.42C784.69 259.46 782.09 265.31 776.87 270V270ZM930.5 238.14C928.82 235.08 929.63 230.03 933.92 227.26H933.89C941.21 223.06 946.8 217.48 950.64 210.49C954.9 202.72 957.02 193.72 957 183.49C956.98 173.2 954.84 164.13 950.58 156.27C946.32 148.41 939.9 142.26 931.31 137.81C922.73 133.36 911.96 131.15 899 131.18L842.01 131.29C840.56 131.29 839.39 132.47 839.39 133.92L839.71 295.91C839.71 297.36 840.89 298.53 842.34 298.53L862.33 298.49C863.78 298.49 864.95 297.31 864.95 295.86L864.86 250.64C864.88 240.85 868.84 235.24 880.07 235.17L893.82 235.14C898.49 235.22 901.62 237.15 903.93 241L934.11 296.96C934.57 297.81 935.46 298.34 936.42 298.34L959.17 298.29C961.16 298.29 962.42 296.15 961.46 294.4L930.5 238.14V238.14ZM916.75 209.87C911.61 212.22 904.96 213.41 896.79 213.42L880.05 213.45C868.79 213.43 864.81 207.84 864.75 198.04L864.69 168.47C864.67 158.55 868.65 152.88 880.05 152.86L896.35 152.83C904.68 152.81 911.42 154.04 916.57 156.51C921.72 158.98 925.51 162.52 927.94 167.14C930.37 171.76 931.59 177.23 931.61 183.55C931.62 189.81 930.43 195.18 928.05 199.64C925.65 204.11 921.89 207.52 916.75 209.87ZM1064.98 132.59C1064.8 132.083 1064.46 131.644 1064.02 131.335C1063.58 131.025 1063.05 130.859 1062.51 130.86L1037.04 130.91C1035.93 130.91 1034.95 131.61 1034.58 132.65L976.61 294.76C976 296.47 977.27 298.27 979.08 298.26L1000.27 298.22C1001.39 298.22 1002.38 297.51 1002.74 296.45L1013.46 265.29C1014.9 261.09 1019.14 253.93 1028.2 253.91L1071.88 253.82C1080.69 253.8 1084.96 260.56 1086.53 264.79L1097.47 296.26C1097.65 296.775 1097.98 297.222 1098.43 297.537C1098.87 297.853 1099.4 298.021 1099.95 298.02L1121.14 297.98C1122.96 297.98 1124.22 296.17 1123.6 294.47L1064.98 132.59V132.59ZM1063.02 232.61L1037 232.66C1027.03 232.68 1027.52 224.38 1028.76 220.78L1043.35 178.35C1044.99 172.4 1054.49 172.67 1056.46 178.32L1071.36 221.17C1072.48 224.96 1072.59 232.59 1063.02 232.61V232.61ZM1171.23 130.64L1151.24 130.68C1149.79 130.68 1148.62 131.86 1148.62 133.31L1148.94 295.3C1148.94 296.75 1150.12 297.92 1151.57 297.92L1171.56 297.88C1173.01 297.88 1174.18 296.7 1174.18 295.25L1173.86 133.26C1173.86 131.81 1172.68 130.64 1171.23 130.64ZM1342.96 130.3L1323.22 130.34C1321.77 130.34 1320.6 131.52 1320.6 132.97L1320.8 232.84C1320.78 241.11 1311.64 241.91 1307.48 236.19L1234.74 131.65C1234.5 131.301 1234.18 131.016 1233.8 130.821C1233.42 130.625 1233 130.525 1232.58 130.53L1213.22 130.57C1211.77 130.57 1210.6 131.75 1210.6 133.2L1210.92 295.19C1210.92 296.64 1212.1 297.81 1213.55 297.81L1233.54 297.77C1234.99 297.77 1236.16 296.59 1236.16 295.14L1235.96 195.48C1235.94 187.15 1245.15 186.35 1249.31 192.12L1321.94 296.47C1322.43 297.18 1323.24 297.6 1324.1 297.59L1343.3 297.55C1344.75 297.55 1345.92 296.37 1345.92 294.92L1345.6 132.93C1345.6 132.232 1345.32 131.564 1344.82 131.072C1344.33 130.58 1343.66 130.302 1342.96 130.3V130.3ZM1495.91 231.66C1492.93 226.28 1489.04 221.77 1484.25 218.13C1479.45 214.49 1474.25 211.56 1468.64 209.34C1463.03 207.12 1457.55 205.36 1452.21 204.06L1435.87 199.85C1432.6 199.04 1429.2 198 1425.66 196.73C1422.19 195.492 1418.86 193.883 1415.73 191.93C1412.65 190 1410.17 187.6 1408.28 184.72C1406.4 181.84 1405.45 178.41 1405.44 174.44C1405.43 169.7 1406.8 165.47 1409.54 161.73C1412.28 158 1416.16 155.05 1421.16 152.89C1426.16 150.73 1432.1 149.64 1438.95 149.63C1448.53 149.61 1456.48 151.73 1462.81 155.99C1468.54 159.85 1472.04 165.14 1473.31 171.86C1473.42 172.457 1473.74 172.995 1474.21 173.38C1474.68 173.766 1475.27 173.974 1475.88 173.97L1495.19 173.93C1496.72 173.93 1497.94 172.61 1497.81 171.08C1497.14 163.25 1494.57 156.24 1490.08 150.05C1485.06 143.12 1478.2 137.68 1469.51 133.72C1460.82 129.76 1450.81 127.8 1439.49 127.82C1428.28 127.84 1418.21 129.86 1409.29 133.88C1400.37 137.9 1393.3 143.51 1388.09 150.7C1382.88 157.9 1380.28 166.31 1380.3 175.95C1380.32 187.6 1384.25 196.96 1392.08 204.02C1399.91 211.08 1410.52 216.42 1423.92 220.04L1443.69 225.39C1449.68 226.96 1455.06 228.77 1459.83 230.83C1464.6 232.89 1468.38 235.49 1471.2 238.65C1474.01 241.8 1475.42 245.86 1475.43 250.81C1475.44 256.25 1473.84 261.01 1470.64 265.07C1467.43 269.13 1463.04 272.3 1457.47 274.57C1451.89 276.84 1445.54 277.98 1438.41 278C1431.93 278.01 1425.98 277.06 1420.56 275.14C1415.14 273.22 1410.7 270.26 1407.23 266.26C1404.2 262.77 1402.31 258.5 1401.54 253.45C1401.45 252.828 1401.14 252.261 1400.66 251.85C1400.19 251.438 1399.58 251.212 1398.95 251.21L1378.8 251.25C1377.24 251.25 1376.03 252.61 1376.19 254.16C1377.11 263.01 1379.9 270.73 1384.59 277.33C1389.78 284.64 1396.95 290.28 1406.1 294.23C1415.25 298.19 1426.09 300.15 1438.61 300.13C1451.68 300.1 1462.82 297.96 1472.04 293.69C1481.26 289.42 1488.29 283.61 1493.15 276.25C1498.01 268.89 1500.43 260.48 1500.41 251C1500.38 243.5 1498.88 237.05 1495.91 231.66V231.66Z" class="logo_text"></path> <path d="M91.97 72.6C132.69 45.82 168.94 39.95 202.25 47.1V47.09C216.12 47.61 211.63 38.57 205.26 34.56C196.87 29.53 188.39 25.01 179.81 21.15C173.58 18.35 167.43 15.95 161.35 13.95L125.55 23.62C114.881 26.5007 105.158 32.1397 97.36 39.97L39.66 97.9C31.8609 105.728 26.2598 115.471 23.42 126.15L21.23 134.39C43.54 111.64 66.7 89.23 91.97 72.6ZM343.17 215.6C343.14 215.58 343.1 215.55 343.1 215.55C351.98 219.96 360.33 215.36 349.33 206.89C278.21 152.69 203.97 106.8 119.55 136.66C75.63 152.19 37.57 182.15 1.01003 212.28C-0.219969 220.76 0.260031 229.43 2.51003 237.75L9.69004 264.32C9.75004 264.27 9.82004 264.22 9.88004 264.17C54.23 229.74 100.09 194.13 156.52 180.5C219.39 165.31 282.69 184.97 343.17 215.6V215.6ZM413.46 184.26C422.03 189.65 430.3 194.33 438.33 198.33L418.62 125.36C415.739 114.691 410.1 104.968 402.27 97.17L344.34 39.47C336.512 31.6708 326.769 26.0698 316.09 23.23L237.08 2.22998C226.4 -0.610371 215.16 -0.58968 204.49 2.28997L186.07 7.25998C231.62 32.12 266.94 55.22 320.99 108.45C374.03 160.71 382.71 164.92 413.46 184.26ZM170.53 360.62C134.09 360 102.91 367.21 74.25 378.82L98.09 402.57C105.92 410.37 115.66 415.97 126.34 418.81L205.36 439.81C216.04 442.65 227.28 442.63 237.95 439.75L316.88 418.43C327.549 415.549 337.272 409.91 345.07 402.08L346.6 400.54C288.38 378.27 229.44 361.62 170.53 360.62V360.62ZM441.94 216.65C385.64 188.28 348.78 152.81 339.64 143.64C296.66 100.48 196.92 2.37 95.08 77.32C68.64 96.78 42.55 120.55 18.32 145.48L7.03004 187.96C39.92 161.5 74.57 136.61 114.54 122.47C219.24 85.44 306.04 153.54 389.98 219.41C405.48 231.57 420.55 243.39 435.39 254.26L439.98 237C441.41 231.62 442.11 226.1 442.09 220.59C442.07 219.28 442.02 217.96 441.94 216.65V216.65ZM157.83 185.99C102.58 199.34 57.21 234.57 13.33 268.64C12.65 269.17 11.96 269.7 11.27 270.24L23.82 316.69C24.91 320.74 26.41 324.64 28.26 328.36C34.01 324.22 39.71 320.07 45.36 315.94C93 281.14 142.26 245.15 208.16 237.41C279.65 229.02 355.18 253.36 427.26 284.83L430.44 272.86C345.6 219.59 250.68 163.55 157.83 185.99ZM209.92 252.34C170.8 256.93 138.24 271.88 107.43 291.13C96.46 298.23 100.66 305.54 111.2 302.42C111.21 302.42 111.22 302.41 111.23 302.41C132.36 295.57 155.67 291.49 182.58 291.58C258.4 291.86 333.32 313.18 406.7 339.76C412.45 332.79 416.67 324.66 419.01 315.89L423.36 299.53C352.5 268.45 278.58 244.28 209.92 252.34V252.34ZM39.99 344.68C40.05 344.74 40.11 344.81 40.17 344.87L62.65 367.26C94.42 353.57 129.21 344.88 170.79 345.58C234.06 346.66 296.67 364.91 358.21 388.89L402.63 344.3C330.4 318.26 256.75 297.51 182.56 297.24C121.93 297.01 81.17 317.67 39.99 344.68V344.68Z" fill="url(#paint0_linear_12_3)"></path> <defs><linearGradient id="paint0_linear_12_3" x1="68.051" y1="374.192" x2="372.839" y2="69.4039" gradientUnits="userSpaceOnUse"><stop stop-color="#00A595"></stop> <stop offset="0.481" stop-color="#00C959"></stop> <stop offset="1" stop-color="#9CE142"></stop></linearGradient></defs></svg>